<svg width="349" height="131" viewBox="0 0 349 131" fill="none" xmlns="http://www.w3.org/2000/svg">
<path d="M101.557 34C101.481 33.053 101.126 32.3144 100.491 31.7841C99.8665 31.2538 98.9148 30.9886 97.6364 30.9886C96.822 30.9886 96.1544 31.0881 95.6335 31.2869C95.1222 31.4763 94.7434 31.7367 94.4972 32.0682C94.2509 32.3996 94.1231 32.7784 94.1136 33.2045C94.0947 33.5549 94.1563 33.8722 94.2983 34.1562C94.4498 34.4309 94.6866 34.6818 95.0085 34.9091C95.3305 35.1269 95.7424 35.3258 96.2443 35.5057C96.7462 35.6856 97.3428 35.8466 98.0341 35.9886L100.42 36.5C102.03 36.8409 103.408 37.2907 104.554 37.8494C105.7 38.4081 106.637 39.0663 107.366 39.8239C108.096 40.572 108.631 41.4148 108.972 42.3523C109.322 43.2898 109.502 44.3125 109.511 45.4205C109.502 47.3333 109.024 48.9527 108.077 50.2784C107.13 51.6042 105.776 52.6127 104.014 53.304C102.262 53.9953 100.155 54.3409 97.6932 54.3409C95.1648 54.3409 92.9583 53.9669 91.0739 53.2188C89.1989 52.4706 87.7405 51.3201 86.6989 49.767C85.6667 48.2045 85.1458 46.2064 85.1364 43.7727H92.6364C92.6837 44.6629 92.9063 45.411 93.304 46.017C93.7017 46.6231 94.2604 47.0824 94.9801 47.3949C95.7093 47.7074 96.5758 47.8636 97.5795 47.8636C98.4223 47.8636 99.1278 47.7595 99.696 47.5511C100.264 47.3428 100.695 47.054 100.989 46.6847C101.282 46.3153 101.434 45.8939 101.443 45.4205C101.434 44.9754 101.287 44.5871 101.003 44.2557C100.728 43.9148 100.274 43.6117 99.6392 43.3466C99.0047 43.072 98.1477 42.8163 97.0682 42.5795L94.1705 41.9545C91.5947 41.3958 89.5634 40.4631 88.0767 39.1562C86.5994 37.84 85.8655 36.0455 85.875 33.7727C85.8655 31.9261 86.358 30.3116 87.3523 28.929C88.3561 27.5369 89.7434 26.4527 91.5142 25.6761C93.2945 24.8996 95.3352 24.5114 97.6364 24.5114C99.9848 24.5114 102.016 24.9044 103.73 25.6903C105.444 26.4763 106.765 27.5843 107.693 29.0142C108.631 30.4347 109.104 32.0966 109.114 34H101.557ZM131.408 34.5114C131.285 34.0095 131.09 33.5691 130.825 33.1903C130.56 32.8021 130.229 32.4754 129.831 32.2102C129.443 31.9356 128.988 31.732 128.467 31.5994C127.956 31.4574 127.393 31.3864 126.777 31.3864C125.451 31.3864 124.32 31.7036 123.382 32.3381C122.454 32.9725 121.744 33.8864 121.251 35.0795C120.768 36.2727 120.527 37.7121 120.527 39.3977C120.527 41.1023 120.759 42.5606 121.223 43.7727C121.687 44.9848 122.378 45.9129 123.297 46.5568C124.215 47.2008 125.357 47.5227 126.72 47.5227C127.923 47.5227 128.922 47.3475 129.717 46.9972C130.522 46.6468 131.124 46.1496 131.521 45.5057C131.919 44.8617 132.118 44.1042 132.118 43.233L133.482 43.375H126.834V37.75H139.732V41.7841C139.732 44.4356 139.168 46.7036 138.041 48.5881C136.924 50.4631 135.38 51.9025 133.411 52.9062C131.45 53.9006 129.201 54.3977 126.663 54.3977C123.832 54.3977 121.346 53.7964 119.206 52.5938C117.066 51.3911 115.394 49.6771 114.192 47.4517C112.999 45.2263 112.402 42.5795 112.402 39.5114C112.402 37.1061 112.767 34.9754 113.496 33.1193C114.234 31.2633 115.257 29.696 116.564 28.4176C117.871 27.1297 119.381 26.1591 121.095 25.5057C122.809 24.8428 124.646 24.5114 126.607 24.5114C128.33 24.5114 129.93 24.7576 131.408 25.25C132.894 25.733 134.206 26.4242 135.342 27.3239C136.488 28.214 137.411 29.2699 138.112 30.4915C138.813 31.7131 139.239 33.053 139.391 34.5114H131.408ZM143.414 54V24.9091H164.38V31.2727H151.312V36.2727H163.3V42.6364H151.312V47.6364H164.323V54H143.414ZM168.297 54V24.9091H180.854C183.013 24.9091 184.902 25.3352 186.521 26.1875C188.141 27.0398 189.4 28.2377 190.3 29.7812C191.199 31.3248 191.649 33.1288 191.649 35.1932C191.649 37.2765 191.185 39.0805 190.257 40.6051C189.339 42.1297 188.046 43.304 186.379 44.1278C184.722 44.9517 182.786 45.3636 180.57 45.3636H173.07V39.2273H178.979C179.907 39.2273 180.697 39.0663 181.351 38.7443C182.014 38.4129 182.52 37.9441 182.871 37.3381C183.231 36.732 183.411 36.017 183.411 35.1932C183.411 34.3598 183.231 33.6496 182.871 33.0625C182.52 32.4659 182.014 32.0114 181.351 31.6989C180.697 31.3769 179.907 31.2159 178.979 31.2159H176.195V54H168.297ZM194.661 54V32.1818H202.274V36.3295H202.501C202.899 34.7955 203.529 33.6733 204.391 32.9631C205.262 32.2528 206.28 31.8977 207.445 31.8977C207.786 31.8977 208.122 31.9261 208.453 31.983C208.794 32.0303 209.121 32.1013 209.433 32.196V38.8864C209.045 38.7538 208.567 38.6544 207.999 38.5881C207.43 38.5218 206.943 38.4886 206.536 38.4886C205.768 38.4886 205.077 38.6638 204.462 39.0142C203.856 39.3551 203.377 39.8381 203.027 40.4631C202.677 41.0786 202.501 41.803 202.501 42.6364V54H194.661ZM221.266 54.3977C218.898 54.3977 216.872 53.929 215.186 52.9915C213.5 52.0445 212.208 50.7282 211.308 49.0426C210.409 47.3475 209.959 45.3826 209.959 43.1477C209.959 40.9129 210.409 38.9527 211.308 37.267C212.208 35.572 213.5 34.2557 215.186 33.3182C216.872 32.3712 218.898 31.8977 221.266 31.8977C223.633 31.8977 225.66 32.3712 227.345 33.3182C229.031 34.2557 230.323 35.572 231.223 37.267C232.123 38.9527 232.572 40.9129 232.572 43.1477C232.572 45.3826 232.123 47.3475 231.223 49.0426C230.323 50.7282 229.031 52.0445 227.345 52.9915C225.66 53.929 223.633 54.3977 221.266 54.3977ZM221.322 48.6023C221.985 48.6023 222.558 48.3797 223.041 47.9347C223.524 47.4896 223.898 46.8551 224.163 46.0312C224.429 45.2074 224.561 44.2273 224.561 43.0909C224.561 41.9451 224.429 40.965 224.163 40.1506C223.898 39.3267 223.524 38.6922 223.041 38.2472C222.558 37.8021 221.985 37.5795 221.322 37.5795C220.622 37.5795 220.02 37.8021 219.518 38.2472C219.017 38.6922 218.633 39.3267 218.368 40.1506C218.103 40.965 217.97 41.9451 217.97 43.0909C217.97 44.2273 218.103 45.2074 218.368 46.0312C218.633 46.8551 219.017 47.4896 219.518 47.9347C220.02 48.3797 220.622 48.6023 221.322 48.6023ZM243.652 54.2841C242.099 54.2841 240.669 53.8769 239.362 53.0625C238.065 52.2481 237.023 51.0123 236.237 49.3551C235.461 47.6979 235.072 45.6098 235.072 43.0909C235.072 40.4583 235.48 38.3182 236.294 36.6705C237.118 35.0227 238.179 33.8153 239.476 33.0483C240.783 32.2812 242.156 31.8977 243.595 31.8977C244.675 31.8977 245.622 32.0871 246.436 32.4659C247.25 32.8352 247.932 33.3324 248.482 33.9574C249.031 34.5729 249.447 35.25 249.732 35.9886H249.845V24.9091H257.686V54H249.902V50.4205H249.732C249.429 51.1591 248.993 51.822 248.425 52.4091C247.866 52.9867 247.184 53.446 246.379 53.7869C245.584 54.1184 244.675 54.2841 243.652 54.2841ZM246.55 48.2614C247.269 48.2614 247.885 48.053 248.396 47.6364C248.917 47.2102 249.315 46.6136 249.589 45.8466C249.874 45.0701 250.016 44.1515 250.016 43.0909C250.016 42.0114 249.874 41.0881 249.589 40.321C249.315 39.5445 248.917 38.9527 248.396 38.5455C247.885 38.1288 247.269 37.9205 246.55 37.9205C245.83 37.9205 245.214 38.1288 244.703 38.5455C244.201 38.9527 243.813 39.5445 243.538 40.321C243.273 41.0881 243.141 42.0114 243.141 43.0909C243.141 44.1705 243.273 45.0985 243.538 45.875C243.813 46.642 244.201 47.2339 244.703 47.6506C245.214 48.0578 245.83 48.2614 246.55 48.2614ZM275.683 44.4545V32.1818H283.524V54H276.081V49.8523H275.854C275.38 51.2443 274.552 52.3333 273.368 53.1193C272.184 53.8958 270.778 54.2841 269.149 54.2841C267.625 54.2841 266.289 53.9337 265.143 53.233C264.007 52.5322 263.122 51.5663 262.487 50.3352C261.862 49.1042 261.545 47.6932 261.536 46.1023V32.1818H269.376V44.4545C269.386 45.5341 269.661 46.3816 270.2 46.9972C270.75 47.6127 271.517 47.9205 272.501 47.9205C273.155 47.9205 273.718 47.7831 274.192 47.5085C274.675 47.2244 275.044 46.8267 275.3 46.3153C275.565 45.7945 275.693 45.1742 275.683 44.4545ZM300.523 32.1818V37.8636H286.148V32.1818H300.523ZM288.933 26.9545H296.773V46.983C296.773 47.286 296.826 47.5417 296.93 47.75C297.034 47.9489 297.195 48.1004 297.413 48.2045C297.63 48.2992 297.91 48.3466 298.251 48.3466C298.487 48.3466 298.762 48.3182 299.075 48.2614C299.397 48.2045 299.633 48.1572 299.785 48.1193L300.921 53.6307C300.571 53.7348 300.069 53.8627 299.415 54.0142C298.772 54.1657 298.004 54.2652 297.114 54.3125C295.315 54.4072 293.805 54.2225 292.583 53.7585C291.362 53.285 290.443 52.5417 289.827 51.5284C289.212 50.5152 288.914 49.2462 288.933 47.7216V26.9545ZM314 54.3977C311.633 54.3977 309.606 53.929 307.92 52.9915C306.235 52.0445 304.942 50.7282 304.043 49.0426C303.143 47.3475 302.693 45.3826 302.693 43.1477C302.693 40.9129 303.143 38.9527 304.043 37.267C304.942 35.572 306.235 34.2557 307.92 33.3182C309.606 32.3712 311.633 31.8977 314 31.8977C316.367 31.8977 318.394 32.3712 320.08 33.3182C321.765 34.2557 323.058 35.572 323.957 37.267C324.857 38.9527 325.307 40.9129 325.307 43.1477C325.307 45.3826 324.857 47.3475 323.957 49.0426C323.058 50.7282 321.765 52.0445 320.08 52.9915C318.394 53.929 316.367 54.3977 314 54.3977ZM314.057 48.6023C314.72 48.6023 315.293 48.3797 315.776 47.9347C316.259 47.4896 316.633 46.8551 316.898 46.0312C317.163 45.2074 317.295 44.2273 317.295 43.0909C317.295 41.9451 317.163 40.965 316.898 40.1506C316.633 39.3267 316.259 38.6922 315.776 38.2472C315.293 37.8021 314.72 37.5795 314.057 37.5795C313.356 37.5795 312.755 37.8021 312.253 38.2472C311.751 38.6922 311.367 39.3267 311.102 40.1506C310.837 40.965 310.705 41.9451 310.705 43.0909C310.705 44.2273 310.837 45.2074 311.102 46.0312C311.367 46.8551 311.751 47.4896 312.253 47.9347C312.755 48.3797 313.356 48.6023 314.057 48.6023ZM348.432 39.2841H341.216C341.178 38.839 341.022 38.4555 340.747 38.1335C340.473 37.8116 340.117 37.5653 339.682 37.3949C339.256 37.215 338.782 37.125 338.261 37.125C337.589 37.125 337.011 37.2481 336.528 37.4943C336.045 37.7405 335.809 38.0909 335.818 38.5455C335.809 38.8674 335.946 39.1657 336.23 39.4403C336.524 39.715 337.087 39.928 337.92 40.0795L342.352 40.875C344.587 41.2822 346.249 41.9687 347.338 42.9347C348.437 43.8911 348.991 45.1742 349 46.7841C348.991 48.3371 348.527 49.6866 347.608 50.8324C346.699 51.9687 345.454 52.8494 343.872 53.4744C342.3 54.09 340.506 54.3977 338.489 54.3977C335.155 54.3977 332.546 53.7159 330.662 52.3523C328.787 50.9886 327.741 49.1894 327.523 46.9545H335.307C335.411 47.6458 335.752 48.1809 336.33 48.5597C336.917 48.929 337.655 49.1136 338.545 49.1136C339.265 49.1136 339.857 48.9905 340.321 48.7443C340.795 48.4981 341.036 48.1477 341.045 47.6932C341.036 47.2765 340.828 46.9451 340.42 46.6989C340.023 46.4527 339.398 46.2538 338.545 46.1023L334.682 45.4205C332.456 45.0322 330.79 44.2936 329.682 43.2045C328.574 42.1155 328.025 40.714 328.034 39C328.025 37.4848 328.422 36.2017 329.227 35.1506C330.042 34.09 331.202 33.285 332.707 32.7358C334.223 32.1771 336.017 31.8977 338.091 31.8977C341.244 31.8977 343.73 32.5511 345.548 33.858C347.376 35.1648 348.337 36.9735 348.432 39.2841Z" fill="white"/>
<path d="M138.164 65.0605C138.164 78.0581 134.03 90.7577 126.296 101.522C118.561 112.287 107.581 120.623 94.7694 125.456C81.958 130.289 67.9033 131.397 54.4169 128.638C40.9305 125.879 28.6308 119.379 19.1032 109.975C9.5757 100.572 3.2571 88.6968 0.961975 75.8802C-1.33315 63.0637 0.500425 49.8935 6.22632 38.0674C11.9522 26.2413 21.308 16.3015 33.0875 9.52927C44.867 2.75703 58.5303 -0.537165 72.3161 0.0713396L69.0819 65.0605H138.164Z" fill="white"/>
<mask id="path-3-inside-1_0_1" fill="white">
<path d="M145.381 64.5958C145.381 75.0867 141.34 85.3371 133.779 94.0257C126.218 102.714 115.483 109.443 102.958 113.344C90.4339 117.245 76.6938 118.139 63.5093 115.912C50.3249 113.685 38.3005 108.438 28.9863 100.849C19.672 93.2588 13.4949 83.6737 11.2512 73.3289C9.00744 62.9841 10.8 52.3539 16.3977 42.8085C21.9954 33.2632 31.1416 25.2403 42.6575 19.7742C54.1733 14.308 67.5307 11.6491 81.0078 12.1403L77.846 64.5958H145.381Z"/>
</mask>
<path d="M145.381 64.5958C145.381 75.0867 141.34 85.3371 133.779 94.0257C126.218 102.714 115.483 109.443 102.958 113.344C90.4339 117.245 76.6938 118.139 63.5093 115.912C50.3249 113.685 38.3005 108.438 28.9863 100.849C19.672 93.2588 13.4949 83.6737 11.2512 73.3289C9.00744 62.9841 10.8 52.3539 16.3977 42.8085C21.9954 33.2632 31.1416 25.2403 42.6575 19.7742C54.1733 14.308 67.5307 11.6491 81.0078 12.1403L77.846 64.5958H145.381Z" fill="#FF7700" stroke="white" stroke-width="10" mask="url(#path-3-inside-1_0_1)"/>
</svg>
