<svg width="22" height="30" viewBox="0 0 22 30" fill="none" xmlns="http://www.w3.org/2000/svg">
<g clip-path="url(#clip0_8_284)">
<path d="M14.9534 4.2745C15.1815 3.95521 15.4522 3.70193 15.7501 3.52913C16.0481 3.35633 16.3674 3.2674 16.6899 3.2674C17.0124 3.2674 17.3317 3.35633 17.6296 3.52913C17.9276 3.70193 18.1983 3.95521 18.4263 4.2745C18.6543 4.59379 18.8352 4.97285 18.9586 5.39003C19.082 5.8072 19.1456 6.25433 19.1456 6.70588C19.1456 7.15742 19.082 7.60455 18.9586 8.02172C18.8352 8.4389 18.6543 8.81796 18.4263 9.13725L6.70537 25.549L1.93018 27.3725L3.2325 20.6863L14.9534 4.2745Z" stroke="#F3F3F3" stroke-width="4" stroke-linecap="round" stroke-linejoin="round"/>
</g>
<defs>
<clipPath id="clip0_8_284">
<rect width="20.8372" height="29.1765" fill="white" transform="translate(0.193726 0.627441)"/>
</clipPath>
</defs>
</svg>
