<svg width="141" height="140" viewBox="0 0 141 140" fill="none" xmlns="http://www.w3.org/2000/svg">
<path d="M134 70C134 83.9843 129.991 97.6481 122.49 109.23C114.988 120.812 104.339 129.781 91.9133 134.981C79.488 140.181 65.8569 141.373 52.7769 138.405C39.697 135.436 27.7679 128.442 18.5275 118.325C9.28711 108.208 3.15894 95.4307 0.932984 81.6411C-1.29297 67.8515 0.485344 53.6815 6.03868 40.9575C11.592 28.2336 20.6658 17.5391 32.0903 10.2527C43.5149 2.96635 56.7664 -0.577947 70.1367 0.0767558L67 70H134Z" fill="#FF7700"/>
<mask id="path-2-inside-1_0_1" fill="white">
<path d="M141 69.5C141 80.7873 137.081 91.816 129.747 101.164C122.414 110.512 112.003 117.752 99.8555 121.949C87.7085 126.146 74.3824 127.108 61.5954 124.712C48.8083 122.316 37.1463 116.671 28.1127 108.505C19.0792 100.339 13.0882 90.0262 10.9121 78.8961C8.73598 67.7659 10.4745 56.3286 15.9035 46.0586C21.3325 35.7886 30.2031 27.1566 41.3719 21.2754C52.5406 15.3943 65.4955 12.5335 78.5665 13.062L75.5 69.5H141Z"/>
</mask>
<path d="M141 69.5C141 80.7873 137.081 91.816 129.747 101.164C122.414 110.512 112.003 117.752 99.8555 121.949C87.7085 126.146 74.3824 127.108 61.5954 124.712C48.8083 122.316 37.1463 116.671 28.1127 108.505C19.0792 100.339 13.0882 90.0262 10.9121 78.8961C8.73598 67.7659 10.4745 56.3286 15.9035 46.0586C21.3325 35.7886 30.2031 27.1566 41.3719 21.2754C52.5406 15.3943 65.4955 12.5335 78.5665 13.062L75.5 69.5H141Z" fill="white" stroke="#FF7700" stroke-width="10" mask="url(#path-2-inside-1_0_1)"/>
</svg>
